<svg display="none" xmlns="http://www.w3.org/2000/svg">
	<symbol id="football" viewBox="0 0 22 22">
		<path
			d="M19.185 16.75C19.3839 16.75 19.5747 16.671 19.7153 16.5303C19.856 16.3897 19.935 16.1989 19.935 16C19.935 15.8011 19.856 15.6103 19.7153 15.4697C19.5747 15.329 19.3839 15.25 19.185 15.25V16.75ZM12.48 20.263C12.4474 20.3568 12.4337 20.4562 12.4398 20.5553C12.4458 20.6545 12.4716 20.7514 12.5154 20.8405C12.5593 20.9297 12.6204 21.0092 12.6952 21.0745C12.77 21.1398 12.8571 21.1896 12.9513 21.221C13.0456 21.2524 13.1451 21.2647 13.2442 21.2573C13.3432 21.25 13.4398 21.223 13.5283 21.1779C13.6169 21.1329 13.6956 21.0707 13.7599 20.9951C13.8242 20.9194 13.8729 20.8316 13.903 20.737L12.48 20.263ZM2.998 15.25C2.79909 15.25 2.60832 15.329 2.46767 15.4697C2.32702 15.6103 2.248 15.8011 2.248 16C2.248 16.1989 2.32702 16.3897 2.46767 16.5303C2.60832 16.671 2.79909 16.75 2.998 16.75V15.25ZM8.279 20.737C8.34379 20.9232 8.47932 21.0765 8.65626 21.1635C8.83319 21.2506 9.0373 21.2645 9.22438 21.2021C9.41147 21.1398 9.56648 21.0063 9.65587 20.8306C9.74526 20.6548 9.76183 20.4509 9.702 20.263L8.279 20.737ZM4.556 4.46C4.50455 4.26785 4.37887 4.10401 4.20662 4.00452C4.03437 3.90503 3.82965 3.87805 3.6375 3.9295C3.44535 3.98095 3.28151 4.10663 3.18202 4.27888C3.08253 4.45113 3.05555 4.65585 3.107 4.848L4.556 4.46ZM0.627 10.989C0.461107 11.0988 0.345626 11.27 0.305962 11.4649C0.266298 11.6599 0.3057 11.8626 0.4155 12.0285C0.5253 12.1944 0.696503 12.3099 0.891447 12.3495C1.08639 12.3892 1.28911 12.3498 1.455 12.24L0.627 10.989ZM18.934 4.849C18.9595 4.75386 18.966 4.65463 18.9531 4.55698C18.9402 4.45933 18.9082 4.36517 18.859 4.27988C18.8097 4.19459 18.7441 4.11984 18.666 4.05989C18.5878 3.99994 18.4986 3.95598 18.4035 3.9305C18.2113 3.87905 18.0066 3.90603 17.8344 4.00552C17.7491 4.05478 17.6743 4.12036 17.6144 4.19851C17.5544 4.27666 17.5105 4.36586 17.485 4.461L18.934 4.849ZM20.586 12.24C20.7519 12.3498 20.9546 12.3892 21.1496 12.3495C21.3445 12.3099 21.5157 12.1944 21.6255 12.0285C21.7353 11.8626 21.7747 11.6599 21.735 11.4649C21.6954 11.27 21.5799 11.0988 21.414 10.989L20.586 12.24ZM15.09 2.836C15.2495 2.72024 15.3571 2.54631 15.3894 2.35186C15.4217 2.1574 15.3762 1.95805 15.2626 1.79692C15.1491 1.63579 14.9766 1.52584 14.7826 1.49086C14.5886 1.45588 14.3887 1.49868 14.226 1.61L15.09 2.836ZM7.616 1.397C7.53705 1.33527 7.44654 1.28998 7.34979 1.26382C7.25305 1.23766 7.15205 1.23115 7.05274 1.24468C6.95344 1.25821 6.85786 1.2915 6.77165 1.34259C6.68543 1.39369 6.61033 1.46154 6.55078 1.54214C6.49122 1.62275 6.44843 1.71447 6.42492 1.81189C6.40142 1.90932 6.39768 2.01046 6.41392 2.10935C6.43016 2.20825 6.46605 2.30288 6.51948 2.38767C6.57291 2.47246 6.6428 2.54568 6.725 2.603L7.616 1.397ZM20.227 11C20.227 16.11 16.09 20.25 10.989 20.25V21.75C16.92 21.75 21.727 16.936 21.727 11H20.227ZM10.989 20.25C5.887 20.25 1.75 16.11 1.75 11H0.25C0.25 16.936 5.057 21.75 10.989 21.75V20.25ZM1.75 11C1.75 5.89 5.887 1.75 10.989 1.75V0.25C5.057 0.25 0.25 5.064 0.25 11H1.75ZM10.989 1.75C16.089 1.75 20.227 5.89 20.227 11H21.727C21.727 5.064 16.92 0.25 10.989 0.25V1.75ZM11.139 9.06L12.976 10.464L13.887 9.273L12.05 7.868L11.139 9.06ZM13.063 10.737L12.341 13.074L13.775 13.516L14.495 11.179L13.063 10.737ZM12.103 13.25H9.873V14.75H12.103V13.25ZM9.636 13.074L8.914 10.737L7.481 11.179L8.202 13.516L9.636 13.074ZM9 10.464L10.837 9.059L9.926 7.868L8.089 9.273L9 10.464ZM19.185 15.25H17.57V16.75H19.185V15.25ZM13.068 18.498L12.48 20.263L13.903 20.737L14.49 18.972L13.068 18.498ZM17.57 15.25C16.892 15.25 16.319 15.249 15.854 15.302C15.37 15.357 14.925 15.478 14.522 15.769L15.4 16.986C15.52 16.899 15.684 16.831 16.025 16.792C16.385 16.752 16.857 16.75 17.57 16.75V15.25ZM14.49 18.972C14.716 18.296 14.865 17.848 15.019 17.519C15.163 17.207 15.28 17.072 15.4 16.986L14.522 15.769C14.118 16.061 13.863 16.444 13.658 16.887C13.46 17.312 13.282 17.855 13.068 18.498L14.49 18.972ZM2.999 16.75H4.614V15.25H2.998L2.999 16.75ZM7.693 18.972L8.279 20.737L9.703 20.263L9.116 18.498L7.693 18.972ZM4.614 16.75C5.327 16.75 5.797 16.751 6.158 16.792C6.498 16.832 6.663 16.899 6.783 16.986L7.661 15.769C7.257 15.479 6.812 15.357 6.328 15.302C5.863 15.249 5.291 15.25 4.614 15.25V16.75ZM9.116 18.498C8.901 17.855 8.722 17.312 8.524 16.887C8.319 16.445 8.064 16.061 7.661 15.769L6.783 16.986C6.903 17.072 7.019 17.206 7.164 17.519C7.317 17.849 7.467 18.296 7.693 18.972L9.116 18.498ZM3.107 4.848L3.525 6.409L4.974 6.021L4.556 4.46L3.107 4.848ZM2.178 9.964L0.628 10.988L1.455 12.24L3.005 11.214L2.178 9.964ZM3.525 6.409C3.709 7.098 3.83 7.554 3.884 7.913C3.934 8.253 3.911 8.431 3.859 8.569L5.262 9.101C5.438 8.635 5.439 8.175 5.367 7.692C5.298 7.229 5.149 6.676 4.974 6.021L3.525 6.409ZM3.005 11.214C3.571 10.84 4.048 10.526 4.407 10.225C4.781 9.912 5.085 9.566 5.262 9.101L3.859 8.569C3.807 8.707 3.707 8.855 3.443 9.076C3.165 9.309 2.773 9.571 2.178 9.964L3.005 11.214ZM17.485 4.461L17.067 6.022L18.516 6.409L18.934 4.847L17.485 4.461ZM19.035 11.214L20.586 12.24L21.414 10.988L19.863 9.963L19.035 11.214ZM17.067 6.022C16.892 6.678 16.743 7.229 16.674 7.692C16.602 8.175 16.603 8.636 16.779 9.101L18.182 8.569C18.13 8.431 18.107 8.254 18.157 7.913C18.211 7.553 18.332 7.098 18.516 6.409L17.067 6.022ZM19.863 9.963C19.269 9.57 18.876 9.309 18.598 9.076C18.334 8.856 18.234 8.707 18.182 8.569L16.779 9.101C16.956 9.566 17.26 9.912 17.634 10.225C17.993 10.526 18.47 10.841 19.036 11.215L19.863 9.963ZM14.226 1.61L12.906 2.542L13.77 3.767L15.09 2.836L14.226 1.61ZM9.111 2.5L7.615 1.398L6.725 2.604L8.22 3.707L9.111 2.5ZM12.905 2.542C12.323 2.952 11.937 3.223 11.619 3.397C11.317 3.562 11.144 3.601 10.997 3.6L10.98 5.1C11.478 5.105 11.91 4.947 12.339 4.713C12.749 4.488 13.216 4.158 13.769 3.767L12.905 2.542ZM8.22 3.707C8.766 4.11 9.225 4.45 9.63 4.684C10.053 4.927 10.483 5.094 10.98 5.1L10.997 3.6C10.849 3.598 10.677 3.555 10.379 3.384C10.064 3.203 9.684 2.923 9.111 2.5L8.22 3.707ZM12.976 10.464C13.0173 10.4956 13.0477 10.5393 13.063 10.589L14.496 10.146C14.3886 9.79882 14.1757 9.49371 13.887 9.273L12.976 10.464ZM13.063 10.589C13.0779 10.6372 13.0779 10.6888 13.063 10.737L14.496 11.179C14.5999 10.8425 14.5999 10.4825 14.496 10.146L13.063 10.589ZM17.193 8.142L13.493 9.675L14.066 11.061L17.768 9.528L17.193 8.142ZM12.05 7.868C11.7451 7.63476 11.3719 7.50826 10.988 7.508V9.008C11.0428 9.00759 11.0961 9.02594 11.139 9.06L12.05 7.868ZM10.988 7.508C10.615 7.508 10.24 7.628 9.927 7.868L10.837 9.059C10.8808 9.02613 10.9342 9.00856 10.989 9.009L10.988 7.508ZM11.738 8.258V4.35H10.238V8.258H11.738ZM12.341 13.074C12.3261 13.1226 12.2968 13.1655 12.257 13.197L13.185 14.375C13.4643 14.1552 13.6701 13.8556 13.775 13.516L12.341 13.074ZM12.257 13.197C12.2133 13.2312 12.1595 13.2498 12.104 13.25V14.75C12.506 14.75 12.884 14.612 13.185 14.375L12.257 13.197ZM15.529 15.887L13.289 13.295L12.154 14.277L14.394 16.868L15.529 15.887ZM9.873 13.25C9.81753 13.2498 9.76371 13.2312 9.72 13.197L8.792 14.375C9.092 14.612 9.471 14.75 9.873 14.75V13.25ZM9.72 13.197C9.68015 13.1655 9.65085 13.1226 9.636 13.074L8.202 13.516C8.31 13.865 8.519 14.161 8.792 14.376L9.72 13.197ZM7.81 16.84L9.846 14.248L8.666 13.322L6.631 15.913L7.81 16.84ZM8.914 10.736C8.89906 10.6878 8.89906 10.6372 8.914 10.589L7.481 10.145C7.37706 10.4815 7.37706 10.8425 7.481 11.179L8.914 10.736ZM8.914 10.589C8.92929 10.5393 8.95971 10.4946 9.001 10.463L8.09 9.273C7.80111 9.49397 7.58824 9.79746 7.481 10.145L8.914 10.589ZM8.489 9.676L4.852 8.144L4.269 9.526L7.906 11.059L8.489 9.676Z" />
	</symbol>
	<symbol id="hockey">
		<path d="M15.5156 0.705872C16.125 0.705872 16.707 0.79043 17.2617 0.959548C17.8164 1.12867 18.3164 1.41911 18.7617 1.83087L22.8047 5.63602C23.2422 6.04778 23.5508 6.5147 23.7305 7.03675C23.9102 7.55881 24 8.11028 24 8.69117C24 9.45587 23.8672 10.25 23.6016 11.0735C23.3359 11.897 22.9648 12.7206 22.4883 13.5441C22.0117 14.3676 21.4492 15.1838 20.8008 15.9926C20.1523 16.8015 19.4453 17.5662 18.6797 18.2868C17.9141 19.0073 17.1055 19.6728 16.2539 20.2831C15.4023 20.8934 14.5352 21.4228 13.6523 21.8713C12.7695 22.3198 11.8906 22.6691 11.0156 22.9191C10.1406 23.1691 9.29688 23.2941 8.48438 23.2941C7.88281 23.2941 7.30078 23.2095 6.73828 23.0404C6.17578 22.8713 5.67578 22.5809 5.23828 22.1691L1.19531 18.364C0.757812 17.9522 0.449219 17.4853 0.269531 16.9632C0.0898438 16.4412 0 15.8897 0 15.3088C0 14.5441 0.132812 13.75 0.398438 12.9265C0.664062 12.1029 1.03125 11.2757 1.5 10.4448C1.96875 9.61396 2.53125 8.79778 3.1875 7.99631C3.84375 7.19484 4.55469 6.43381 5.32031 5.71322C6.08594 4.99264 6.89453 4.3272 7.74609 3.7169C8.59766 3.10661 9.46484 2.5772 10.3477 2.12867C11.2305 1.68014 12.1094 1.33087 12.9844 1.08087C13.8594 0.830872 14.7031 0.705872 15.5156 0.705872ZM1.5 15.3419C1.5 16.2316 1.75391 16.9081 2.26172 17.3713C2.76953 17.8345 3.49609 18.0662 4.44141 18.0662C5.14453 18.0662 5.88281 17.9522 6.65625 17.7243C7.42969 17.4963 8.21484 17.1728 9.01172 16.7537C9.80859 16.3345 10.5898 15.8493 11.3555 15.2978C12.1211 14.7463 12.8555 14.1397 13.5586 13.4779C14.2617 12.8162 14.9102 12.1213 15.5039 11.3934C16.0977 10.6654 16.6133 9.93014 17.0508 9.18749C17.4883 8.44484 17.8281 7.70955 18.0703 6.98161C18.3125 6.25367 18.4375 5.55514 18.4453 4.88602C18.4453 3.99631 18.1953 3.31249 17.6953 2.83455C17.1953 2.35661 16.4727 2.11764 15.5273 2.11764C14.8164 2.11764 14.0742 2.23161 13.3008 2.45955C12.5273 2.68749 11.7422 3.01102 10.9453 3.43014C10.1484 3.84925 9.36328 4.33455 8.58984 4.88602C7.81641 5.43749 7.08203 6.04778 6.38672 6.7169C5.69141 7.38602 5.04297 8.08087 4.44141 8.80146C3.83984 9.52205 3.32422 10.261 2.89453 11.0184C2.46484 11.7757 2.125 12.5147 1.875 13.2353C1.625 13.9559 1.5 14.6581 1.5 15.3419ZM8.44922 21.8823C9.16016 21.8823 9.90625 21.7684 10.6875 21.5404C11.4688 21.3125 12.2539 20.989 13.043 20.5698C13.832 20.1507 14.6172 19.6654 15.3984 19.114C16.1797 18.5625 16.918 17.9559 17.6133 17.2941C18.3086 16.6323 18.957 15.9375 19.5586 15.2095C20.1602 14.4816 20.6758 13.7426 21.1055 12.9926C21.5352 12.2426 21.875 11.5 22.125 10.7647C22.375 10.0294 22.5 9.3272 22.5 8.65808C22.5 8.28308 22.4453 7.92278 22.3359 7.5772C22.2266 7.23161 22.0273 6.91911 21.7383 6.6397L19.957 4.9522C19.9414 5.70955 19.8008 6.49631 19.5352 7.31249C19.2695 8.12867 18.8984 8.94852 18.4219 9.77205C17.9453 10.5956 17.3828 11.4044 16.7344 12.1985C16.0859 12.9926 15.3828 13.7463 14.625 14.4595C13.8672 15.1728 13.0625 15.8382 12.2109 16.4559C11.3594 17.0735 10.5039 17.5993 9.64453 18.0331C8.78516 18.4669 7.91406 18.8198 7.03125 19.0919C6.14844 19.364 5.30859 19.4963 4.51172 19.489L6.30469 21.1654C6.59375 21.4301 6.92188 21.614 7.28906 21.7169C7.65625 21.8198 8.04297 21.875 8.44922 21.8823Z"/>
	</symbol>
	<symbol id="tennis">
		<path fill-rule="evenodd" clip-rule="evenodd" d="M10.6436 0.952319C10.6436 0.952011 10.6436 0.951716 11.392 0.999962C12.1405 1.04821 12.1405 1.04794 12.1405 1.04769L12.1404 1.04955L12.1395 1.0712C12.1386 1.09229 12.1375 1.12656 12.1369 1.17332C12.1356 1.26685 12.1361 1.41023 12.1442 1.59795C12.1602 1.97352 12.2062 2.52564 12.3271 3.21041C12.569 4.57985 13.11 6.47691 14.3096 8.55502C15.5091 10.6331 16.8813 12.0498 17.9462 12.9436C18.4787 13.3905 18.9338 13.7062 19.251 13.9077C19.4096 14.0085 19.5335 14.0806 19.6151 14.1262C19.6559 14.149 19.6861 14.1651 19.7048 14.1749L19.724 14.1849L19.7257 14.1858C19.7254 14.1856 19.7252 14.1855 19.393 14.858C19.0609 15.5304 19.0606 15.5303 19.0603 15.5301L19.0583 15.5291L19.0545 15.5272L19.0434 15.5216L19.0075 15.503C18.9775 15.4873 18.9359 15.4649 18.8834 15.4356C18.7784 15.377 18.6302 15.2905 18.4466 15.1738C18.0795 14.9405 17.5701 14.5863 16.9819 14.0926C15.8053 13.1051 14.311 11.5579 13.0105 9.30491C11.71 7.05202 11.1171 4.98408 10.85 3.47127C10.7164 2.71491 10.6641 2.0966 10.6455 1.662C10.6362 1.44464 10.6354 1.27302 10.637 1.15281C10.6378 1.0927 10.6393 1.04542 10.6406 1.01168L10.6425 0.971289L10.6432 0.958868L10.6434 0.954629L10.6436 0.952319ZM0.666992 7.67196C0.66722 7.67207 0.66746 7.67219 1.00004 6.99996C1.33262 6.32773 1.33288 6.32786 1.33316 6.328L1.33523 6.32903L1.33903 6.33093L1.35013 6.33655L1.38601 6.35516C1.4159 6.37088 1.45756 6.39327 1.51002 6.42262C1.61492 6.48132 1.76308 6.5679 1.94663 6.68465C2.31362 6.91808 2.82282 7.2726 3.4109 7.76653C4.58715 8.75448 6.08116 10.3021 7.38159 12.555C8.68201 14.8079 9.27494 16.8753 9.5421 18.3876C9.67568 19.1437 9.72797 19.7618 9.74654 20.1962C9.75583 20.4135 9.7567 20.585 9.75505 20.7052C9.75423 20.7653 9.75278 20.8126 9.75144 20.8463L9.74961 20.8867L9.74892 20.8991L9.74867 20.9033L9.74857 20.9049C9.74855 20.9053 9.74848 20.9062 9.00004 20.858C8.25159 20.8097 8.25158 20.81 8.25156 20.8102L8.25165 20.8084L8.25263 20.7867C8.25346 20.7657 8.25456 20.7314 8.2552 20.6847C8.25647 20.5912 8.25593 20.4479 8.24791 20.2603C8.23186 19.8849 8.1859 19.3331 8.06498 18.6486C7.82314 17.2796 7.28207 15.3831 6.08249 13.3049C4.88292 11.2268 3.51093 9.80945 2.44617 8.91514C1.91376 8.46795 1.45871 8.15203 1.14157 7.95031C0.98306 7.84948 0.859189 7.7773 0.777573 7.73164C0.736772 7.70881 0.706556 7.69261 0.687879 7.68279L0.668647 7.67281L0.666992 7.67196Z"/>
		<path fill-rule="evenodd" clip-rule="evenodd" d="M10 20C14.9706 20 19 15.9706 19 11C19 6.02944 14.9706 2 10 2C5.02944 2 1 6.02944 1 11C1 15.9706 5.02944 20 10 20ZM10 21C15.5228 21 20 16.5228 20 11C20 5.47715 15.5228 1 10 1C4.47715 1 0 5.47715 0 11C0 16.5228 4.47715 21 10 21Z"/>
	</symbol>
	<symbol id="basketball">
		<path fill-rule="evenodd" clip-rule="evenodd" d="M11 1.75C5.89121 1.75 1.75 5.89121 1.75 11C1.75 16.1088 5.89121 20.25 11 20.25C16.1088 20.25 20.25 16.1088 20.25 11C20.25 5.89121 16.1088 1.75 11 1.75ZM0.25 11C0.25 5.06279 5.06279 0.25 11 0.25C16.9372 0.25 21.75 5.06279 21.75 11C21.75 16.9372 16.9372 21.75 11 21.75C5.06279 21.75 0.25 16.9372 0.25 11Z"/>
		<path fill-rule="evenodd" clip-rule="evenodd" d="M11 0.25C11.4142 0.25 11.75 0.585786 11.75 1V14.2314C15.3423 14.053 18.4669 12.6028 20.4532 10.4867C20.7366 10.1847 21.2113 10.1697 21.5133 10.4532C21.8153 10.7366 21.8303 11.2113 21.5468 11.5133C19.2536 13.9564 15.721 15.5535 11.75 15.7331V21C11.75 21.4142 11.4142 21.75 11 21.75C10.5858 21.75 10.25 21.4142 10.25 21V15.7331C6.27902 15.5535 2.74644 13.9564 0.453165 11.5133C0.169682 11.2113 0.1847 10.7366 0.48671 10.4532C0.788719 10.1697 1.26336 10.1847 1.54684 10.4867C3.5331 12.6028 6.6577 14.053 10.25 14.2314V1C10.25 0.585786 10.5858 0.25 11 0.25Z"/>
		<path fill-rule="evenodd" clip-rule="evenodd" d="M4.34075 3.27319C4.74216 3.37542 4.98469 3.78369 4.88246 4.18509C4.55523 5.47005 4.7793 7.73291 6.16186 9.54498M4.34075 3.27319C3.93935 3.17097 3.53108 3.4135 3.42886 3.8149ZM17.6586 3.27319C18.06 3.17097 18.4682 3.4135 18.5705 3.8149C19.0072 5.52992 18.6993 8.26702 17.0299 10.4549C16.2692 11.4517 15.7313 12.5358 15.7503 13.6508C15.7686 14.7254 16.3098 16.0064 18.0944 17.4106C18.42 17.6667 18.4762 18.1382 18.2201 18.4638C17.964 18.7893 17.4924 18.8456 17.1669 18.5894C15.1385 16.9936 14.2787 15.3261 14.2505 13.6764C14.2231 12.0672 14.9931 10.6513 15.8374 9.54505C17.22 7.73297 17.4441 5.47007 17.1169 4.18509C17.0146 3.78369 17.2572 3.37542 17.6586 3.27319ZM3.42886 3.8149C2.9921 5.52992 3.30002 8.26702 4.9694 10.4549ZM4.9694 10.4549C5.73011 11.4517 6.26805 12.5358 6.24902 13.6508ZM6.24902 13.6508C6.23068 14.7254 5.68955 16.0064 3.90491 17.4106ZM7.7488 13.6764C7.72065 15.3261 6.86078 16.9936 4.83242 18.5894C4.50688 18.8456 4.03535 18.7893 3.77923 18.4638C3.5231 18.1382 3.57937 17.6667 3.90491 17.4106M7.7488 13.6764C7.77627 12.0672 7.00614 10.6512 6.16186 9.54498Z"/>
	</symbol>
	<symbol id="voleyball">
		<path fill-rule="evenodd" clip-rule="evenodd" d="M0.250005 11C0.250005 5.063 5.063 0.25 11 0.25C16.937 0.25 21.75 5.063 21.75 11C21.75 16.937 16.937 21.75 11 21.75C8.45 21.75 6.106 20.862 4.263 19.378L4.261 19.376C3.00774 18.3694 1.99664 17.0942 1.30239 15.6444C0.60814 14.1946 0.248489 12.6074 0.250005 11ZM7.042 19.363C8.242 19.932 9.584 20.25 11 20.25C12.5726 20.2512 14.1195 19.8511 15.4943 19.0874C16.869 18.3237 18.0261 17.2218 18.856 15.886C18.3737 15.1693 17.7949 14.5226 17.136 13.964C14.53 16.766 10.866 18.772 7.042 19.363ZM15.905 13.083C13.1 16.024 9.02201 17.958 5 18.04C4.3752 17.5071 3.82374 16.8937 3.36 16.216C6.422 15.976 9.26 14.459 11.162 12.014L11.364 11.754C12.9663 11.8008 14.5297 12.2588 15.904 13.084M11.429 10.256C14.64 10.356 17.633 11.873 19.612 14.381C20.0574 13.2474 20.2732 12.0367 20.247 10.819L19.711 10.274L19.709 10.272C17.2217 7.78649 13.8761 6.34918 10.361 6.256C10.3777 7.65756 10.7449 9.03265 11.429 10.256ZM10.479 4.759C13.931 4.86789 17.2436 6.14603 19.874 8.384C19.3316 6.55036 18.2349 4.9296 16.7345 3.74427C15.234 2.55894 13.4034 1.86719 11.494 1.764L11.006 2.935C10.7616 3.52109 10.5845 4.133 10.478 4.759M9.84301 1.822C8.88774 1.94107 7.95708 2.20934 7.085 2.617C5.69025 6.12898 5.70351 10.0435 7.122 13.546C8.2273 12.9271 9.19767 12.0934 9.976 11.094L10.093 10.942C9.37256 9.63927 8.95581 8.19057 8.87391 6.70414C8.792 5.21772 9.04705 3.732 9.62 2.358L9.84301 1.822ZM5.76 14.171C4.421 10.9056 4.1871 7.29177 5.094 3.881C4.04667 4.74807 3.20384 5.83582 2.62576 7.06648C2.04768 8.29714 1.74864 9.64033 1.75 11C1.75 12.335 2.033 13.604 2.542 14.75C3.64001 14.7448 4.7288 14.5492 5.76 14.172"/>
	</symbol>
	<symbol id="snooker">
		<path d="M17.3101 12.44L11.5401 2.47001C11.3443 2.12994 11.0834 1.83187 10.7721 1.59291C10.4609 1.35395 10.1056 1.17881 9.72647 1.07753C9.34738 0.976259 8.95203 0.950846 8.5631 1.00275C8.17417 1.05466 7.79931 1.18287 7.46006 1.38001C7.00006 1.64001 6.63006 2.00001 6.36006 2.47001L0.600057 12.44C0.402436 12.7775 0.27382 13.1509 0.221677 13.5385C0.169534 13.9261 0.194902 14.3202 0.296307 14.6979C0.397713 15.0756 0.573137 15.4294 0.812395 15.7388C1.05165 16.0481 1.34998 16.3069 1.69006 16.5C2.14006 16.78 2.65006 16.92 3.18006 16.92H14.7301C15.1227 16.9187 15.5113 16.8401 15.8735 16.6886C16.2358 16.5371 16.5647 16.3158 16.8414 16.0372C17.1181 15.7586 17.3372 15.4283 17.4863 15.065C17.6353 14.7017 17.7114 14.3127 17.7101 13.92C17.7101 13.4 17.5701 12.89 17.3101 12.44ZM2.37006 13.43L8.11006 3.47001C8.38006 3.00001 9.00006 2.82001 9.46006 3.10001C9.62006 3.18001 9.75006 3.31001 9.84006 3.47001L15.5801 13.43C15.8501 13.91 15.6901 14.5 15.2101 14.79C15.0601 14.88 14.8901 14.93 14.7201 14.93H3.21006C2.66006 14.92 2.21006 14.47 2.22006 13.92C2.22006 13.75 2.26006 13.58 2.35006 13.43H2.37006ZM8.97006 9.45001C7.87006 9.45001 7.00006 8.56001 7.00006 7.46001C7.00006 6.35001 7.87006 5.46001 8.97006 5.46001C9.50049 5.46001 10.0092 5.67072 10.3843 6.0458C10.7593 6.42087 10.9701 6.92958 10.9701 7.46001C10.9701 8.56001 10.0701 9.45001 8.95006 9.45001H8.97006ZM6.46006 13.93C5.36006 13.93 4.47006 13.04 4.47006 11.94C4.47006 10.84 5.36006 9.95001 6.46006 9.95001C7.56006 9.95001 8.46006 10.84 8.46006 11.94C8.46006 13.04 7.56006 13.93 6.46006 13.93ZM11.4401 13.93C10.9131 13.9274 10.4084 13.7169 10.0358 13.3442C9.66319 12.9716 9.45269 12.467 9.45006 11.94C9.45269 11.413 9.66319 10.9084 10.0358 10.5358C10.4084 10.1631 10.9131 9.95264 11.4401 9.95001C12.5401 9.95001 13.4401 10.84 13.4401 11.94C13.4401 13.04 12.5401 13.93 11.4401 13.93Z"/>
	</symbol>
	<symbol id="handball">
		<path d="M11 0.875C8.99747 0.875 7.0399 1.46882 5.37486 2.58137C3.70981 3.69392 2.41206 5.27523 1.64572 7.12533C0.879387 8.97543 0.678878 11.0112 1.06955 12.9753C1.46023 14.9393 2.42454 16.7435 3.84055 18.1595C5.25656 19.5755 7.06066 20.5398 9.02471 20.9305C10.9888 21.3211 13.0246 21.1206 14.8747 20.3543C16.7248 19.5879 18.3061 18.2902 19.4186 16.6251C20.5312 14.9601 21.125 13.0025 21.125 11C21.122 8.3156 20.0543 5.74199 18.1562 3.84383C16.258 1.94567 13.6844 0.877978 11 0.875ZM17.7388 15.0706H15.4888L14.5719 13.8125L15.6313 10.7244L17.1078 10.25L18.8516 11.5869C18.7612 12.8198 18.3799 14.0137 17.7388 15.0706ZM3.14844 11.5822L4.89219 10.25L6.36875 10.7291L7.42813 13.8125L6.51407 15.0706H4.26407C3.62125 14.0125 3.23889 12.8169 3.14844 11.5822ZM9.48594 12.875L8.59157 10.2716L11 8.615L13.4084 10.2716L12.5141 12.875H9.48594ZM17.0478 5.96281L16.4122 8.105L14.93 8.58687L12.125 6.65844V5.13688L14.1144 3.76906C15.2505 4.26049 16.2553 5.01192 17.0478 5.96281ZM7.88563 3.76906L9.875 5.13688V6.65844L7.07 8.58687L5.58782 8.105L4.95219 5.96281C5.74471 5.01192 6.74951 4.26049 7.88563 3.76906ZM9.15875 18.6556L8.35063 16.3709L9.25532 15.125H12.7447L13.6494 16.3709L12.8413 18.6556C11.6312 18.9481 10.3688 18.9481 9.15875 18.6556Z"/>
	</symbol>
	<symbol id="baseball">
		<path fill-rule="evenodd" clip-rule="evenodd" d="M11 0C11.5523 0 12 0.447715 12 1C12 7.05228 7.05228 12 1 12C0.447715 12 0 11.5523 0 11C0 10.4477 0.447715 10 1 10C5.94772 10 10 5.94772 10 1C10 0.447715 10.4477 0 11 0Z" />
		<path fill-rule="evenodd" clip-rule="evenodd" d="M11 2C6.02944 2 2 6.02944 2 11C2 15.9706 6.02944 20 11 20C15.9706 20 20 15.9706 20 11C20 6.02944 15.9706 2 11 2ZM0 11C0 4.92487 4.92487 0 11 0C17.0751 0 22 4.92487 22 11C22 17.0751 17.0751 22 11 22C4.92487 22 0 17.0751 0 11Z"/>
		<path fill-rule="evenodd" clip-rule="evenodd" d="M7.70006 4.9C8.03143 4.45817 8.65823 4.36863 9.10006 4.7L11.1001 6.2C11.5419 6.53137 11.6314 7.15817 11.3001 7.6C10.9687 8.04183 10.3419 8.13137 9.90006 7.8L7.90006 6.3C7.45823 5.96863 7.36869 5.34183 7.70006 4.9ZM4.90006 7.7C5.34189 7.36863 5.96869 7.45817 6.30006 7.9L7.80006 9.9C8.13143 10.3418 8.04189 10.9686 7.60006 11.3C7.15823 11.6314 6.53143 11.5418 6.20006 11.1L4.70006 9.1C4.36869 8.65817 4.45823 8.03137 4.90006 7.7ZM16.0229 11.1971C17.5194 10.4321 19.2115 10 21.0001 10C21.5523 10 22.0001 10.4477 22.0001 11C22.0001 11.5523 21.5523 12 21.0001 12C19.6621 12 18.3896 12.2963 17.245 12.8266L17.3001 12.9C17.6314 13.3418 17.5419 13.9686 17.1001 14.3C16.6582 14.6314 16.0314 14.5418 15.7001 14.1L15.527 13.8692C14.9057 14.3479 14.348 14.9056 13.8693 15.5269L14.1001 15.7C14.5419 16.0314 14.6314 16.6582 14.3001 17.1C13.9687 17.5418 13.3419 17.6314 12.9001 17.3L12.8266 17.2449C12.2964 18.3895 12.0001 19.662 12.0001 21C12.0001 21.5523 11.5523 22 11.0001 22C10.4478 22 10.0001 21.5523 10.0001 21C10.0001 19.2114 10.4322 17.5193 11.1972 16.0228L10.9001 15.8C10.4582 15.4686 10.3687 14.8418 10.7001 14.4C11.0314 13.9582 11.6582 13.8686 12.1001 14.2L12.2691 14.3268C12.8617 13.5541 13.5542 12.8616 14.3268 12.269L14.2001 12.1C13.8687 11.6582 13.9582 11.0314 14.4001 10.7C14.8419 10.3686 15.4687 10.4582 15.8001 10.9L16.0229 11.1971Z"/>
	</symbol>
	<symbol id="rugby">	
		<path fill-rule="evenodd" clip-rule="evenodd" d="M17.0113 1.83479C16.1566 1.76935 15.188 1.73245 14.1659 1.75871L20.2399 7.83267C20.2662 6.88529 20.2412 5.93678 20.1649 4.99131L20.1642 4.98219L20.1643 4.98218C20.1084 4.16597 19.7589 3.39757 19.1804 2.81907C18.6019 2.24057 17.8335 1.89109 17.0173 1.83523L17.0112 1.83482L17.0113 1.83479ZM20.1065 9.82059L12.1789 1.89304C9.48269 2.19765 6.77867 3.04249 4.91085 4.91031C3.0411 6.78006 2.19711 9.48324 1.89257 12.1794L9.82012 20.1069C12.5163 19.8024 15.2194 18.9584 17.0892 17.0887C18.957 15.2208 19.8018 12.5168 20.1065 9.82059ZM7.83313 20.2413L1.75917 14.1673C1.73282 15.1147 1.75779 16.0632 1.83409 17.0087L1.83482 17.0178L1.83477 17.0178C1.89062 17.834 2.2401 18.6024 2.8186 19.1809C3.39711 19.7594 4.1655 20.1089 4.98172 20.1647L4.98778 20.1651L4.98778 20.1652C5.84246 20.2306 6.81101 20.2675 7.83313 20.2413ZM17.1228 0.338949C15.7608 0.234775 14.1073 0.198394 12.385 0.363403L12.3848 0.363422C9.42914 0.647402 6.15766 1.54218 3.85019 3.84965C1.54071 6.15913 0.646933 9.42961 0.362953 12.3853L0.362943 12.3853L0.362585 12.3892C0.219657 13.9642 0.21163 15.5485 0.33859 17.1249C0.420206 18.3009 0.92428 19.4079 1.75794 20.2416C2.59201 21.0756 3.69962 21.5798 4.8763 21.661C6.23836 21.7652 7.89181 21.8016 9.61404 21.6366L9.61425 21.6365C12.5699 21.3526 15.8404 20.4588 18.1498 18.1493C20.4573 15.8418 21.3521 12.5704 21.6361 9.61471L21.6364 9.61077C21.7794 8.03577 21.7874 6.45144 21.6604 4.87508C21.5788 3.69903 21.0748 2.59208 20.2411 1.75841C19.407 0.924372 18.2995 0.420219 17.1228 0.338949ZM10.9422 7.15965C11.2351 6.86676 11.71 6.86676 12.0028 7.15965L12.891 8.04782L13.7792 7.15965C14.0721 6.86676 14.547 6.86676 14.8398 7.15965C15.1327 7.45255 15.1327 7.92742 14.8398 8.22031L13.9517 9.10849L14.8398 9.99666C15.1327 10.2895 15.1327 10.7644 14.8398 11.0573C14.547 11.3502 14.0721 11.3502 13.7792 11.0573L12.891 10.1691L12.0602 11L12.9478 11.8877C13.2407 12.1805 13.2407 12.6554 12.9478 12.9483C12.655 13.2412 12.1801 13.2412 11.8872 12.9483L10.9995 12.0606L10.1687 12.8915L11.0568 13.7797C11.3497 14.0725 11.3497 14.5474 11.0568 14.8403C10.764 15.1332 10.2891 15.1332 9.99619 14.8403L9.10802 13.9521L8.21985 14.8403C7.92695 15.1332 7.45208 15.1332 7.15918 14.8403C6.86629 14.5474 6.86629 14.0725 7.15918 13.7797L8.04736 12.8915L7.15918 12.0033C6.86629 11.7104 6.86629 11.2355 7.15918 10.9427C7.45208 10.6498 7.92695 10.6498 8.21985 10.9427L9.10802 11.8308L9.93886 11L9.05119 10.1123C8.75829 9.81942 8.75829 9.34455 9.05119 9.05165C9.34408 8.75876 9.81895 8.75876 10.1118 9.05165L10.9995 9.93933L11.8304 9.10848L10.9422 8.22031C10.6493 7.92742 10.6493 7.45255 10.9422 7.15965Z"/>
	</symbol>
	<symbol id="table-tenis">
		<path d="M18.7104 14.1L17.0704 12.46C16.9269 12.3268 16.8285 12.1521 16.789 11.9602C16.7496 11.7684 16.7711 11.569 16.8504 11.39C17.1986 10.6409 17.3827 9.82601 17.3904 8.99998C17.3946 8.96678 17.3946 8.93318 17.3904 8.89998C17.3939 7.70337 17.0233 6.53561 16.3304 5.55998C14.9906 3.68957 13.2164 2.17272 11.1604 1.13998C9.85585 0.501345 8.38492 0.28435 6.9515 0.519072C5.51808 0.753794 4.19318 1.42861 3.16043 2.44998L2.49043 3.11998C1.45831 4.15665 0.776904 5.49062 0.541939 6.93449C0.306975 8.37835 0.530262 9.85955 1.18043 11.17L1.28043 11.34C0.746766 11.8936 0.44607 12.631 0.44043 13.4C0.4444 13.9306 0.589037 14.4507 0.859589 14.9071C1.13014 15.3636 1.51692 15.7402 1.98049 15.9984C2.44406 16.2566 2.96781 16.3872 3.49834 16.377C4.02888 16.3667 4.54719 16.2159 5.00043 15.94C5.18043 16.08 5.34043 16.23 5.52043 16.36C5.8992 16.6227 6.30897 16.8377 6.74043 17H6.83043C7.01043 17.07 7.20043 17.13 7.40043 17.19H7.55043C7.86154 17.2704 8.17968 17.3206 8.50043 17.34H9.12043C9.33043 17.34 9.53043 17.34 9.74043 17.28H9.91043C10.402 17.1951 10.8797 17.0437 11.3304 16.83C11.51 16.7577 11.7066 16.739 11.8966 16.7763C12.0865 16.8136 12.2615 16.9052 12.4004 17.04L13.8604 18.5C14.4939 19.1357 15.353 19.4951 16.2504 19.5C17.0032 19.4919 17.7222 19.1863 18.2504 18.65L18.6304 18.27C19.182 17.721 19.4987 16.9792 19.5136 16.2012C19.5285 15.4231 19.2405 14.6697 18.7104 14.1ZM3.41043 14.42C3.21265 14.42 3.01931 14.3613 2.85486 14.2515C2.69041 14.1416 2.56224 13.9854 2.48655 13.8027C2.41086 13.6199 2.39106 13.4189 2.42964 13.2249C2.46823 13.0309 2.56347 12.8527 2.70332 12.7129C2.84318 12.573 3.02136 12.4778 3.21534 12.4392C3.40932 12.4006 3.61039 12.4204 3.79311 12.4961C3.97584 12.5718 4.13202 12.7 4.2419 12.8644C4.35178 13.0289 4.41043 13.2222 4.41043 13.42C4.41043 13.6852 4.30507 13.9396 4.11754 14.1271C3.93 14.3146 3.67565 14.42 3.41043 14.42ZM6.51043 14.56L6.25043 14.36C6.35354 14.0572 6.40755 13.7398 6.41043 13.42C6.41043 12.6243 6.09436 11.8613 5.53175 11.2987C4.96914 10.7361 4.20608 10.42 3.41043 10.42H3.03043L2.94043 10.26C2.47531 9.32453 2.31488 8.26688 2.48169 7.23558C2.64849 6.20427 3.13414 5.25112 3.87043 4.50998L4.54043 3.83998C5.29108 3.12053 6.24735 2.65299 7.27615 2.50243C8.30495 2.35188 9.3551 2.52579 10.2804 2.99998C11.9602 3.8402 13.4194 5.06299 14.5404 6.56998L6.51043 14.56ZM17.2904 16.93L16.9204 17.31C16.5004 17.73 15.8504 17.65 15.3104 17.11L13.8504 15.66C13.4205 15.2328 12.8712 14.9459 12.275 14.837C11.6788 14.7281 11.0636 14.8024 10.5104 15.05C10.1951 15.2043 9.85777 15.3089 9.51043 15.36C9.31917 15.3954 9.12493 15.4122 8.93043 15.41H8.49043L15.3604 8.53998C15.4304 9.22514 15.3129 9.91644 15.0204 10.54C14.7728 11.0932 14.6986 11.7084 14.8075 12.3046C14.9164 12.9008 15.2033 13.45 15.6304 13.88L17.2704 15.53C17.4564 15.7143 17.5626 15.9641 17.5663 16.2259C17.5701 16.4877 17.471 16.7404 17.2904 16.93Z"/>
	</symbol>
	<symbol id="simple">
		<path fill-rule="evenodd" clip-rule="evenodd" d="M6.74604 2.08687C5.54022 2.29017 5.28769 2.3664 5.02273 2.69328L5.02185 2.69437C4.76026 3.01586 4.73492 3.32119 4.78949 4.67582L4.78951 4.67639C4.8788 6.93548 5.17649 9.37294 6.09904 11.2266C6.55442 12.1416 7.14986 12.8888 7.92567 13.4091C8.69649 13.9261 9.691 14.25 11.0001 14.25H11.0011C12.3102 14.25 13.3047 13.9261 14.0755 13.4091C14.8513 12.8888 15.4468 12.1416 15.9022 11.2266C16.8247 9.37294 17.1224 6.93548 17.2117 4.67639L17.9611 4.70601L17.2117 4.67639C17.2652 3.32086 17.2411 3.01657 16.979 2.69388C16.7128 2.36618 16.4594 2.29004 15.2524 2.08658L15.2521 2.08652C14.1671 1.90312 12.74 1.75001 11.0001 1.75001H10.997V1.75001C9.57311 1.74411 8.15122 1.85679 6.74604 2.08687ZM11.0016 0.250013C9.49441 0.243857 7.98928 0.363224 6.50186 0.606877L6.50186 0.606869L6.49843 0.607447C6.45319 0.615072 6.40829 0.622582 6.36371 0.630037C5.35351 0.798985 4.51381 0.939416 3.85791 1.7482C3.19986 2.55736 3.23796 3.47035 3.28403 4.57434M3.29069 4.73592C3.38142 7.03077 3.68375 9.74018 4.75616 11.8949C5.29827 12.9842 6.04908 13.9566 7.09015 14.6549C8.13621 15.3564 9.42919 15.75 11.0001 15.75H11.0011C12.572 15.75 13.865 15.3564 14.911 14.6549C15.9521 13.9566 16.7029 12.9842 17.245 11.8949C18.3175 9.74009 18.6198 7.03054 18.7105 4.73563L18.7105 4.73561C18.7127 4.67898 18.7151 4.62284 18.7173 4.56719C18.7625 3.46681 18.7999 2.55657 18.1432 1.74814C17.4863 0.939426 16.647 0.799047 15.6362 0.629986C15.5918 0.622566 15.5471 0.615092 15.5021 0.607504M15.5018 0.607447C14.3391 0.410932 12.8289 0.250104 11.0016 0.250013Z"/>
		<path fill-rule="evenodd" clip-rule="evenodd" d="M11.787 4.80711C12.0673 4.9232 12.25 5.19668 12.25 5.50002V9.50002C12.25 9.91424 11.9142 10.25 11.5 10.25C11.0858 10.25 10.75 9.91424 10.75 9.50002V7.31068L10.5303 7.53035C10.2374 7.82325 9.76256 7.82325 9.46967 7.53035C9.17678 7.23746 9.17678 6.76259 9.46967 6.46969L10.9697 4.96969C11.1842 4.75519 11.5068 4.69103 11.787 4.80711Z" fill="#172853" fill-opacity="0.5"/>
		<path fill-rule="evenodd" clip-rule="evenodd" d="M3.76306 3.28842L4.23695 4.7116L3.28817 5.02752C3.2881 5.02755 3.28825 5.0275 3.28817 5.02752C2.7769 5.19795 2.45334 5.307 2.21829 5.41637C2.00071 5.51762 1.93079 5.58789 1.89162 5.64228C1.85242 5.69672 1.8078 5.78572 1.78055 6.02463C1.75113 6.28249 1.75 6.62378 1.75 7.16201V7.23501C1.75 7.67979 1.75086 7.95904 1.77217 8.17252C1.79183 8.36949 1.82425 8.44809 1.8535 8.49782C1.88258 8.54727 1.93534 8.61366 2.09828 8.72676C2.27483 8.8493 2.51854 8.98582 2.90748 9.20252C2.90767 9.20263 2.90728 9.20242 2.90748 9.20252L5.8641 10.8443L5.1359 12.1557L2.17796 10.5132C2.16569 10.5063 2.15348 10.4995 2.14131 10.4928C1.79362 10.2991 1.48609 10.1278 1.24297 9.95901C0.977664 9.77486 0.738429 9.56075 0.560505 9.25819C0.382753 8.95593 0.311678 8.64303 0.279586 8.32149C0.24996 8.02466 0.249979 7.66984 0.250002 7.26833C0.250002 7.25726 0.250003 7.24615 0.250003 7.23501V7.16201C0.250003 7.14891 0.250002 7.13585 0.250002 7.12283C0.249973 6.63534 0.249948 6.2076 0.29021 5.85463C0.333708 5.4733 0.430582 5.1043 0.674382 4.76574C0.91822 4.42712 1.2373 4.2184 1.58547 4.05639C1.90751 3.90655 2.31344 3.77126 2.77652 3.61693C2.78891 3.6128 2.80158 3.60858 2.81406 3.60442L3.76306 3.28842ZM18.7118 5.02752L17.7631 4.7116L18.2369 3.28842L19.2235 3.61693C19.6866 3.77126 20.0925 3.90654 20.4145 4.05639C20.7627 4.2184 21.0818 4.42712 21.3256 4.76574C21.5694 5.1043 21.6663 5.4733 21.7098 5.85463C21.7501 6.20761 21.75 6.63536 21.75 7.12286V7.26832C21.75 7.66984 21.75 8.02466 21.7204 8.32149C21.6883 8.64303 21.6173 8.95593 21.4395 9.25819C21.2616 9.56075 21.0223 9.77486 20.757 9.95901C20.5139 10.1278 20.2064 10.2991 19.8587 10.4928L16.8641 12.1557L16.1359 10.8443L19.092 9.20284C19.0921 9.20278 19.0919 9.2029 19.092 9.20284C19.481 8.98606 19.7251 8.84932 19.9017 8.72676C20.0647 8.61366 20.1174 8.54727 20.1465 8.49782C20.1758 8.44809 20.2082 8.36949 20.2278 8.17252C20.2491 7.95904 20.25 7.67979 20.25 7.23501V7.16201C20.25 6.62378 20.2489 6.28249 20.2195 6.02463C20.1922 5.78572 20.1476 5.69672 20.1084 5.64228C20.0692 5.58789 19.9993 5.51762 19.7817 5.41637C19.5467 5.307 19.2231 5.19795 18.7118 5.02752Z"/>
		<path fill-rule="evenodd" clip-rule="evenodd" d="M11 14.25C11.4142 14.25 11.75 14.5858 11.75 15V18C11.75 18.4142 11.4142 18.75 11 18.75C10.5858 18.75 10.25 18.4142 10.25 18V15C10.25 14.5858 10.5858 14.25 11 14.25Z"/>
		<path fill-rule="evenodd" clip-rule="evenodd" d="M8.82001 17.75L13.18 17.75C13.5844 17.7502 13.9767 17.8905 14.2894 18.1471C14.602 18.4036 14.8162 18.7604 14.8955 19.157L15.2354 20.8526C15.2796 21.0729 15.2226 21.3015 15.0801 21.4754C14.9377 21.6492 14.7248 21.75 14.5 21.75H7.50001C7.27525 21.75 7.06234 21.6492 6.91989 21.4754C6.77744 21.3015 6.72046 21.0729 6.76464 20.8526L7.10455 19.157C7.18389 18.7606 7.39809 18.4035 7.71064 18.1471C8.0233 17.8905 8.41559 17.7502 8.82001 17.75ZM13.1797 19.25H8.82032C8.7626 19.2501 8.70667 19.2701 8.66204 19.3067C8.61738 19.3434 8.58678 19.3943 8.57546 19.451L8.41528 20.25H13.5847L13.4246 19.4514C13.4133 19.3948 13.3826 19.3434 13.338 19.3067C13.2933 19.2701 13.2374 19.2501 13.1797 19.25Z" />
		<path fill-rule="evenodd" clip-rule="evenodd" d="M4.25 21C4.25 20.5858 4.58579 20.25 5 20.25H17C17.4142 20.25 17.75 20.5858 17.75 21C17.75 21.4142 17.4142 21.75 17 21.75H5C4.58579 21.75 4.25 21.4142 4.25 21Z" />
	</symbol>
	<symbol id="american-football">
		<path d="M11.72 7.22C11.7887 7.14631 11.8715 7.08721 11.9635 7.04622C12.0555 7.00523 12.1548 6.98318 12.2555 6.98141C12.3562 6.97963 12.4562 6.99816 12.5496 7.03588C12.643 7.0736 12.7278 7.12974 12.799 7.20096C12.8703 7.27218 12.9264 7.35701 12.9641 7.4504C13.0018 7.54379 13.0204 7.64382 13.0186 7.74452C13.0168 7.84522 12.9948 7.94454 12.9538 8.03654C12.9128 8.12854 12.8537 8.21134 12.78 8.28L8.28 12.78C8.21134 12.8537 8.12854 12.9128 8.03654 12.9538C7.94454 12.9948 7.84522 13.0168 7.74452 13.0186C7.64382 13.0204 7.54379 13.0018 7.4504 12.9641C7.35701 12.9264 7.27218 12.8703 7.20096 12.799C7.12974 12.7278 7.0736 12.643 7.03588 12.5496C6.99816 12.4562 6.97963 12.3562 6.98141 12.2555C6.98318 12.1548 7.00523 12.0555 7.04622 11.9635C7.08721 11.8715 7.14631 11.7887 7.22 11.72L11.72 7.22ZM15.75 0C16.8772 0 17.9582 0.447767 18.7552 1.2448C19.5522 2.04183 20 3.12283 20 4.25V5.25C20 13.396 13.396 20 5.25 20H4.25C3.12283 20 2.04183 19.5522 1.2448 18.7552C0.447767 17.9582 0 16.8772 0 15.75V14.75C0 6.604 6.604 0 14.75 0H15.75ZM18.5 4.25C18.5 3.52065 18.2103 2.82118 17.6945 2.30546C17.1788 1.78973 16.4793 1.5 15.75 1.5H14.75C14.3467 1.5 13.948 1.51767 13.554 1.553L18.447 6.446C18.4823 6.052 18.5 5.65333 18.5 5.25V4.25ZM18.153 8.274L11.726 1.847C9.30685 2.41596 7.09608 3.65281 5.34546 5.4167C3.59483 7.18059 2.37469 9.40063 1.824 11.824L8.176 18.176C10.5994 17.6253 12.8194 16.4052 14.5833 14.6545C16.3472 12.9039 17.584 10.6931 18.153 8.274ZM1.543 13.665C1.51433 14.023 1.5 14.3847 1.5 14.75V15.75C1.5 16.4793 1.78973 17.1788 2.30546 17.6945C2.82118 18.2103 3.52065 18.5 4.25 18.5H5.25C5.61533 18.5 5.977 18.4853 6.335 18.456L1.543 13.665Z"/>
	</symbol>
	<symbol id="badminton">
	
		<path fill-rule="evenodd" clip-rule="evenodd" d="M6.82573 3.2429L9.5966 15.25H10.4033L13.1742 3.2429C11.456 1.25204 8.54394 1.25204 6.82573 3.2429ZM14.5779 3.83085L11.9428 15.25H13.1605C13.2356 15.0041 13.3595 14.7465 13.5127 14.428C13.5219 14.4088 13.5313 14.3894 13.5407 14.3697C13.5408 14.3696 13.5406 14.3699 13.5407 14.3697L17.9475 5.16417C18.111 4.82277 18.1929 4.6466 18.2321 4.51201C18.257 4.42684 18.2499 4.40892 18.2454 4.39751C18.2449 4.39637 18.2445 4.3953 18.2442 4.39424L18.2438 4.39313C18.2322 4.35886 18.2236 4.34668 18.2214 4.34361C18.2191 4.34037 18.2114 4.32971 18.1854 4.30893C18.1562 4.28561 18.1098 4.25401 18.0299 4.20798C17.9489 4.16128 17.853 4.11072 17.7239 4.04281C16.8213 3.56923 15.6961 3.35493 14.5779 3.83085ZM14.5405 16.5199C14.6702 16.3851 14.75 16.2019 14.75 16C14.75 15.8492 14.7055 15.7088 14.6289 15.5913C14.6705 15.4866 14.7461 15.3245 14.893 15.0188L19.3004 5.81193C19.3004 5.81196 19.3004 5.8119 19.3004 5.81193C19.3069 5.79848 19.3134 5.78492 19.3198 5.77144C19.4562 5.48693 19.5943 5.19876 19.6721 4.93225C19.7655 4.61213 19.7888 4.27599 19.6638 3.90977C19.4375 3.24476 18.9325 2.98146 18.4983 2.75508C18.4726 2.74168 18.4472 2.72842 18.4221 2.7152C17.3298 2.14191 15.8667 1.80299 14.3525 2.3126C12.0319 -0.437884 7.96792 -0.43786 5.64733 2.31267C4.15216 1.80959 2.70851 2.13302 1.62058 2.69397C1.60589 2.70053 1.59132 2.70761 1.57688 2.7152C1.55175 2.72842 1.52631 2.74168 1.50062 2.75508C1.0663 2.98152 0.561126 3.24491 0.334972 3.91033C0.210216 4.27631 0.233483 4.61205 0.326911 4.93199C0.40439 5.19731 0.541841 5.48452 0.677632 5.76826C0.684539 5.78269 0.691441 5.79711 0.698332 5.81152L5.10734 15.0175C5.25284 15.3218 5.3286 15.4852 5.37076 15.5917C5.29436 15.7092 5.24997 15.8494 5.24997 16C5.24997 16.2019 5.32971 16.3851 5.45941 16.5199C5.46672 16.7629 5.47386 17.0582 5.4825 17.4156L5.48318 17.4439C5.48318 17.4438 5.48318 17.444 5.48318 17.4439C5.50987 18.5593 5.88461 19.6433 6.66241 20.4544C7.44873 21.2743 8.58458 21.75 9.99997 21.75C11.4152 21.75 12.5513 21.2747 13.3378 20.4549C14.1159 19.6438 14.4907 18.5597 14.5168 17.4435L14.5174 17.4155C14.5261 17.0581 14.5332 16.7628 14.5405 16.5199ZM13.0335 16.75H11.0164C11.0059 16.7502 10.9954 16.7502 10.9849 16.75H9.01504C9.00452 16.7502 8.99403 16.7502 8.98358 16.75H6.96644C6.97129 16.9337 6.97623 17.1383 6.9817 17.3645L6.98275 17.4079C7.00211 18.2184 7.27088 18.9217 7.74502 19.4161C8.21071 19.9017 8.93536 20.25 9.99997 20.25C11.0647 20.25 11.7896 19.9019 12.2554 19.4164C12.7295 18.9222 12.9982 18.2193 13.0172 17.4085L13.0182 17.3649C13.0237 17.1385 13.0286 16.9338 13.0335 16.75ZM6.83917 15.25H8.05718L5.422 3.8309C4.30277 3.3548 3.1783 3.56943 2.276 4.04384C2.26257 4.0509 2.24903 4.05751 2.23538 4.06368C2.12591 4.12132 2.0415 4.1662 1.96899 4.20798C1.8891 4.25401 1.84273 4.28561 1.81355 4.30893C1.78757 4.32971 1.77979 4.34037 1.77749 4.34361C1.7753 4.34668 1.76678 4.35886 1.75515 4.39313L1.75477 4.39424C1.7544 4.39532 1.75398 4.3964 1.75352 4.39754C1.74901 4.40893 1.74199 4.42665 1.76677 4.51152C1.8061 4.64619 1.88793 4.82217 2.05153 5.16434C2.05156 5.16439 2.05151 5.16429 2.05153 5.16434L6.46039 14.37C6.46831 14.3866 6.47634 14.4034 6.4841 14.4196C6.63985 14.7451 6.76358 15.0037 6.83917 15.25Z"/>
		<path fill-rule="evenodd" clip-rule="evenodd" d="M3.49821 10.4426C3.80606 10.1655 4.28028 10.1904 4.55741 10.4982C5.04552 11.0404 5.55407 11.2498 6.00001 11.2498C6.44594 11.2498 6.95449 11.0404 7.4426 10.4982C7.58483 10.3402 7.78742 10.25 8.00001 10.25C8.21259 10.25 8.41518 10.3402 8.55741 10.4982C9.04552 11.0404 9.55407 11.2498 10 11.2498C10.4459 11.2498 10.9545 11.0404 11.4426 10.4982C11.5848 10.3402 11.7874 10.25 12 10.25C12.2126 10.25 12.4152 10.3402 12.5574 10.4982C13.0455 11.0404 13.5541 11.2498 14 11.2498C14.4459 11.2498 14.9545 11.0404 15.4426 10.4982C15.7197 10.1904 16.194 10.1655 16.5018 10.4426C16.8096 10.7197 16.8345 11.194 16.5574 11.5018C15.8455 12.2926 14.9541 12.7498 14 12.7498C13.2811 12.7498 12.5978 12.4902 12 12.0239C11.4022 12.4902 10.7189 12.7498 10 12.7498C9.28111 12.7498 8.59777 12.4902 8.00001 12.0239C7.40225 12.4902 6.7189 12.7498 6.00001 12.7498C5.04594 12.7498 4.15449 12.2926 3.4426 11.5018C3.16547 11.194 3.19037 10.7197 3.49821 10.4426Z"/>

	</symbol>
	<symbol id="esports">
		<path d="M2.54965 14C1.69965 14 1.04132 13.704 0.574648 13.112C0.107982 12.52 -0.0670182 11.7993 0.0496484 10.95L1.09965 3.45C1.24965 2.45 1.69565 1.625 2.43765 0.975C3.17965 0.325 4.05032 0 5.04965 0H14.9496C15.9496 0 16.8206 0.325 17.5626 0.975C18.3046 1.625 18.7503 2.45 18.8996 3.45L19.9496 10.95C20.0663 11.8 19.8913 12.521 19.4246 13.113C18.958 13.705 18.2997 14.0007 17.4496 14C17.0996 14 16.7746 13.9377 16.4746 13.813C16.1747 13.6883 15.8996 13.5007 15.6496 13.25L13.3996 11H6.59965L4.34965 13.25C4.09965 13.5 3.82465 13.6877 3.52465 13.813C3.22465 13.9383 2.89965 14.0007 2.54965 14ZM2.94965 11.85L5.79965 9H14.1996L17.0496 11.85C17.083 11.8833 17.2163 11.9333 17.4496 12C17.633 12 17.779 11.946 17.8876 11.838C17.9963 11.73 18.0336 11.584 17.9996 11.4L16.8996 3.7C16.833 3.21667 16.6163 2.81267 16.2496 2.488C15.883 2.16333 15.4496 2.00067 14.9496 2H5.04965C4.54965 2 4.11632 2.16267 3.74965 2.488C3.38298 2.81333 3.16632 3.21733 3.09965 3.7L1.99965 11.4C1.96632 11.5833 2.00398 11.7293 2.11265 11.838C2.22132 11.9467 2.36698 12.0007 2.54965 12C2.58298 12 2.71632 11.95 2.94965 11.85ZM14.9996 8C15.283 8 15.5206 7.90433 15.7126 7.713C15.9046 7.52167 16.0003 7.284 15.9996 7C15.999 6.716 15.903 6.47867 15.7116 6.288C15.5203 6.09733 15.283 6.00133 14.9996 6C14.7163 5.99867 14.479 6.09467 14.2876 6.288C14.0963 6.48133 14.0003 6.71867 13.9996 7C13.999 7.28133 14.095 7.519 14.2876 7.713C14.4803 7.907 14.7176 8.00267 14.9996 8ZM12.9996 5C13.283 5 13.5206 4.904 13.7126 4.712C13.9046 4.52 14.0003 4.28267 13.9996 4C13.999 3.71733 13.903 3.48 13.7116 3.288C13.5203 3.096 13.283 3 12.9996 3C12.7163 3 12.479 3.096 12.2876 3.288C12.0963 3.48 12.0003 3.71733 11.9996 4C11.999 4.28267 12.095 4.52033 12.2876 4.713C12.4803 4.90567 12.7176 5.00133 12.9996 5ZM5.74965 8H7.24965V6.25H8.99965V4.75H7.24965V3H5.74965V4.75H3.99965V6.25H5.74965V8Z"/>
	</symbol>
	<symbol id="cricket">
		<path d="M19.8103 5.62844L14.8716 0.68969C14.7323 0.550366 14.5669 0.439846 14.3849 0.364442C14.2029 0.289039 14.0078 0.250229 13.8108 0.250229C13.6138 0.250229 13.4187 0.289039 13.2367 0.364442C13.0547 0.439846 12.8893 0.550366 12.75 0.68969L2.68969 10.75C2.55036 10.8893 2.43984 11.0547 2.36444 11.2367C2.28904 11.4187 2.25023 11.6138 2.25023 11.8108C2.25023 12.0078 2.28904 12.2029 2.36444 12.3849C2.43984 12.5669 2.55036 12.7323 2.68969 12.8716L4.62844 14.8103L0.222187 19.2166C0.0814569 19.3573 0.00239539 19.5482 0.00239539 19.7472C0.0023954 19.9462 0.0814569 20.1371 0.222187 20.2778C0.362918 20.4185 0.553789 20.4976 0.752812 20.4976C0.951835 20.4976 1.14271 20.4185 1.28344 20.2778L5.68969 15.8716L7.62844 17.8103C7.76773 17.9496 7.9331 18.0602 8.11511 18.1356C8.29712 18.211 8.49221 18.2498 8.68922 18.2498C8.88623 18.2498 9.08131 18.211 9.26332 18.1356C9.44533 18.0602 9.61071 17.9496 9.75 17.8103L19.8103 7.75C19.9496 7.61071 20.0602 7.44534 20.1356 7.26333C20.211 7.08132 20.2498 6.88623 20.2498 6.68922C20.2498 6.49221 20.211 6.29713 20.1356 6.11512C20.0602 5.93311 19.9496 5.76773 19.8103 5.62844ZM8.68969 16.75L6.75 14.8103L9.53062 12.0306C9.67136 11.8899 9.75042 11.699 9.75042 11.5C9.75042 11.301 9.67136 11.1101 9.53062 10.9694C9.38989 10.8286 9.19902 10.7496 9 10.7496C8.80098 10.7496 8.6101 10.8286 8.46937 10.9694L5.68969 13.75L3.75 11.8103L7.06031 8.5H12V13.4397L8.68969 16.75ZM18.75 6.68969L13.5 11.9397V7.75C13.5 7.55109 13.421 7.36032 13.2803 7.21967C13.1397 7.07902 12.9489 7 12.75 7H8.56031L13.8103 1.75L18.75 6.68875V6.68969ZM2.625 6.25C3.14418 6.25 3.65169 6.09605 4.08337 5.80761C4.51505 5.51917 4.8515 5.1092 5.05018 4.62955C5.24886 4.14989 5.30085 3.62209 5.19956 3.11289C5.09828 2.60369 4.84827 2.13596 4.48115 1.76885C4.11404 1.40173 3.64631 1.15173 3.13711 1.05044C2.62791 0.949155 2.10011 1.00114 1.62046 1.19982C1.1408 1.3985 0.730831 1.73495 0.442392 2.16663C0.153953 2.59831 0 3.10583 0 3.625C0 4.3212 0.276562 4.98887 0.768845 5.48116C1.26113 5.97344 1.92881 6.25 2.625 6.25ZM2.625 2.5C2.8475 2.5 3.06501 2.56598 3.25002 2.6896C3.43502 2.81322 3.57922 2.98892 3.66436 3.19448C3.74951 3.40005 3.77179 3.62625 3.72838 3.84448C3.68497 4.06271 3.57783 4.26316 3.4205 4.4205C3.26316 4.57783 3.06271 4.68498 2.84448 4.72839C2.62625 4.77179 2.40005 4.74952 2.19448 4.66437C1.98891 4.57922 1.81321 4.43502 1.6896 4.25002C1.56598 4.06501 1.5 3.84751 1.5 3.625C1.5 3.32663 1.61853 3.04049 1.8295 2.82951C2.04048 2.61853 2.32663 2.5 2.625 2.5Z"/>
	</symbol>
</svg>